{
	"asset": {
		"generator": "Blocks",
		"version": "105",
		"copyright": "Unknown"
	},
	"buffers": {
		"model": {
			"byteLength": 737184,
			"type": "arraybuffer",
			"uri": "model.bin"
		}
	},
	"accessors": {
		"accessor_position_m0-PolyPaper17_-2150776": {
			"bufferView": "vec3BufferView",
			"byteOffset": 0,
			"byteStride": 12,
			"componentType": 5126,
			"count": 2954,
			"max": [ 0.453038, 0.6707133, 0.9835671 ],
			"min": [ -0.8701584, 0.3054606, 0.4926987 ],
			"type": "VEC3"
		 },
		"accessor_normal_m0-PolyPaper17_-2150776": {
			"bufferView": "vec3BufferView",
			"byteOffset": 35448,
			"byteStride": 12,
			"componentType": 5126,
			"count": 2954,
			"max": [ 0.9847271, 0.9959903, 0.9977294 ],
			"min": [ -0.9873732, -0.9965414, -0.9974524 ],
			"type": "VEC3"
		 },
		"accessor_color_m0-PolyPaper17_-2150776": {
			"bufferView": "vec4BufferView",
			"byteOffset": 0,
			"byteStride": 16,
			"componentType": 5126,
			"count": 2954,
			"max": [ 1, 1, 1, 1 ],
			"min": [ 0.1019608, 0.1019608, 0.1019608, 1 ],
			"type": "VEC4"
		 },
		"accessor_indices_0_m0-PolyPaper17_-2150776": {
			"bufferView": "ushortBufferView",
			"byteOffset": 0,
			"byteStride": 0,
			"componentType": 5123,
			"count": 4170,
			"max": [ 2953 ],
			"min": [ 0 ],
			"type": "SCALAR"
		 },
		"accessor_position_m1-PolyPaper20_-2150770": {
			"bufferView": "vec3BufferView",
			"byteOffset": 70896,
			"byteStride": 12,
			"componentType": 5126,
			"count": 9824,
			"max": [ 0.5581566, 0.6234083, 1.028738 ],
			"min": [ -0.9088998, -0.0479603, 0.3430067 ],
			"type": "VEC3"
		 },
		"accessor_normal_m1-PolyPaper20_-2150770": {
			"bufferView": "vec3BufferView",
			"byteOffset": 188784,
			"byteStride": 12,
			"componentType": 5126,
			"count": 9824,
			"max": [ 0.9995688, 0.9995417, 0.9998513 ],
			"min": [ -0.9988655, -0.9997565, -0.9993139 ],
			"type": "VEC3"
		 },
		"accessor_color_m1-PolyPaper20_-2150770": {
			"bufferView": "vec4BufferView",
			"byteOffset": 47264,
			"byteStride": 16,
			"componentType": 5126,
			"count": 9824,
			"max": [ 1, 1, 1, 1 ],
			"min": [ 0.1019608, 0.1019608, 0.1019608, 1 ],
			"type": "VEC4"
		 },
		"accessor_indices_0_m1-PolyPaper20_-2150770": {
			"bufferView": "ushortBufferView",
			"byteOffset": 8340,
			"byteStride": 0,
			"componentType": 5123,
			"count": 13572,
			"max": [ 9823 ],
			"min": [ 0 ],
			"type": "SCALAR"
		 },
		"accessor_position_m2-PolyGem25_-2150772": {
			"bufferView": "vec3BufferView",
			"byteOffset": 306672,
			"byteStride": 12,
			"componentType": 5126,
			"count": 3350,
			"max": [ 0.5264727, 0.5915454, 0.9216996 ],
			"min": [ 0.01608711, 0.1283267, 0.3662573 ],
			"type": "VEC3"
		 },
		"accessor_normal_m2-PolyGem25_-2150772": {
			"bufferView": "vec3BufferView",
			"byteOffset": 346872,
			"byteStride": 12,
			"componentType": 5126,
			"count": 3350,
			"max": [ 0.9991458, 0.9994722, 0.9983125 ],
			"min": [ -0.9966935, -0.9997569, -0.9980334 ],
			"type": "VEC3"
		 },
		"accessor_color_m2-PolyGem25_-2150772": {
			"bufferView": "vec4BufferView",
			"byteOffset": 204448,
			"byteStride": 16,
			"componentType": 5126,
			"count": 3350,
			"max": [ 1, 1, 1, 1 ],
			"min": [ 1, 1, 1, 1 ],
			"type": "VEC4"
		 },
		"accessor_indices_0_m2-PolyGem25_-2150772": {
			"bufferView": "ushortBufferView",
			"byteOffset": 35484,
			"byteStride": 0,
			"componentType": 5123,
			"count": 4122,
			"max": [ 3349 ],
			"min": [ 0 ],
			"type": "SCALAR"
		 },
		"accessor_position_m3-PolyGlass24_-2150774": {
			"bufferView": "vec3BufferView",
			"byteOffset": 387072,
			"byteStride": 12,
			"componentType": 5126,
			"count": 1134,
			"max": [ 0.4808821, 0.6079233, 1.037788 ],
			"min": [ -0.845265, 0.02974477, 0.4037017 ],
			"type": "VEC3"
		 },
		"accessor_normal_m3-PolyGlass24_-2150774": {
			"bufferView": "vec3BufferView",
			"byteOffset": 400680,
			"byteStride": 12,
			"componentType": 5126,
			"count": 1134,
			"max": [ 0.990999, 0.9992589, 0.9948136 ],
			"min": [ -0.9909991, -0.9992589, -0.9948136 ],
			"type": "VEC3"
		 },
		"accessor_color_m3-PolyGlass24_-2150774": {
			"bufferView": "vec4BufferView",
			"byteOffset": 258048,
			"byteStride": 16,
			"componentType": 5126,
			"count": 1134,
			"max": [ 0.8392157, 0.8392157, 0.8392157, 0.2509804 ],
			"min": [ 0.8392157, 0.8392157, 0.8392157, 0.2509804 ],
			"type": "VEC4"
		 },
		"accessor_indices_0_m3-PolyGlass24_-2150774": {
			"bufferView": "ushortBufferView",
			"byteOffset": 43728,
			"byteStride": 0,
			"componentType": 5123,
			"count": 1488,
			"max": [ 1133 ],
			"min": [ 0 ],
			"type": "SCALAR"
		 }
	},
	"bufferViews": {
		"ushortBufferView": {
			"buffer": "model",
			"byteLength": 46704,
			"byteOffset": 0,
			"target": 34963
		},
		"vec3BufferView": {
			"buffer": "model",
			"byteLength": 414288,
			"byteOffset": 46704,
			"target": 34962
		},
		"vec4BufferView": {
			"buffer": "model",
			"byteLength": 276192,
			"byteOffset": 460992,
			"target": 34962
		}
	},
	"meshes": {
		"mesh_m0-PolyPaper17_-2150776": {
			"name": "mesh_m0-PolyPaper17_-2150776",
			"primitives": [
				{
					"attributes": {
						"POSITION": "accessor_position_m0-PolyPaper17_-2150776",
						"NORMAL": "accessor_normal_m0-PolyPaper17_-2150776",
						"COLOR": "accessor_color_m0-PolyPaper17_-2150776"
					},
					"indices": "accessor_indices_0_m0-PolyPaper17_-2150776",
					"material": "material_mat17",
					"mode": 4
				}
			]
		},
		"mesh_m1-PolyPaper20_-2150770": {
			"name": "mesh_m1-PolyPaper20_-2150770",
			"primitives": [
				{
					"attributes": {
						"POSITION": "accessor_position_m1-PolyPaper20_-2150770",
						"NORMAL": "accessor_normal_m1-PolyPaper20_-2150770",
						"COLOR": "accessor_color_m1-PolyPaper20_-2150770"
					},
					"indices": "accessor_indices_0_m1-PolyPaper20_-2150770",
					"material": "material_mat20",
					"mode": 4
				}
			]
		},
		"mesh_m2-PolyGem25_-2150772": {
			"name": "mesh_m2-PolyGem25_-2150772",
			"primitives": [
				{
					"attributes": {
						"POSITION": "accessor_position_m2-PolyGem25_-2150772",
						"NORMAL": "accessor_normal_m2-PolyGem25_-2150772",
						"COLOR": "accessor_color_m2-PolyGem25_-2150772"
					},
					"indices": "accessor_indices_0_m2-PolyGem25_-2150772",
					"material": "material_mat25",
					"mode": 4
				}
			]
		},
		"mesh_m3-PolyGlass24_-2150774": {
			"name": "mesh_m3-PolyGlass24_-2150774",
			"primitives": [
				{
					"attributes": {
						"POSITION": "accessor_position_m3-PolyGlass24_-2150774",
						"NORMAL": "accessor_normal_m3-PolyGlass24_-2150774",
						"COLOR": "accessor_color_m3-PolyGlass24_-2150774"
					},
					"indices": "accessor_indices_0_m3-PolyGlass24_-2150774",
					"material": "material_mat24",
					"mode": 4
				}
			]
		}
	},
	"shaders": {
		"vertex_mat17": {
			"type": 35633,
			"uri": "https://vr.google.com/shaders/w/vs.glsl"
		},
		"fragment_mat17": {
			"type": 35632,
			"uri": "https://vr.google.com/shaders/w/fs.glsl"
		},
		"vertex_mat20": {
			"type": 35633,
			"uri": "https://vr.google.com/shaders/w/vs.glsl"
		},
		"fragment_mat20": {
			"type": 35632,
			"uri": "https://vr.google.com/shaders/w/fs.glsl"
		},
		"vertex_mat25": {
			"type": 35633,
			"uri": "https://vr.google.com/shaders/w/gemVS.glsl"
		},
		"fragment_mat25": {
			"type": 35632,
			"uri": "https://vr.google.com/shaders/w/gemFS.glsl"
		},
		"vertex_mat24": {
			"type": 35633,
			"uri": "https://vr.google.com/shaders/w/glassVS.glsl"
		},
		"fragment_mat24": {
			"type": 35632,
			"uri": "https://vr.google.com/shaders/w/glassFS.glsl"
		}
	},
	"programs": {
		"program_mat17": {
			"attributes": [
				"a_position",
				"a_normal",
				"a_color"				
			],
			"vertexShader": "vertex_mat17",
			"fragmentShader": "fragment_mat17"
		},
		"program_mat20": {
			"attributes": [
				"a_position",
				"a_normal",
				"a_color"				
			],
			"vertexShader": "vertex_mat20",
			"fragmentShader": "fragment_mat20"
		},
		"program_mat25": {
			"attributes": [
				"a_position",
				"a_normal",
				"a_color"				
			],
			"vertexShader": "vertex_mat25",
			"fragmentShader": "fragment_mat25"
		},
		"program_mat24": {
			"attributes": [
				"a_position",
				"a_normal",
				"a_color"				
			],
			"vertexShader": "vertex_mat24",
			"fragmentShader": "fragment_mat24"
		}
	},
	"techniques": {
		"technique_mat17": {
			"program": "program_mat17",
			"extras": {"gvrss" : "https://vr.google.com/shaders/w/gvrss/paper.json"},
			"parameters": {
				"position": {
					"type": 35665,
					"semantic": "POSITION"
				},
				"normal": {
					"type": 35665,
					"semantic": "NORMAL"
				},
				"color": {
					"type": 35666,
					"semantic": "COLOR"
				},
				"modelViewMatrix": {
					"type": 35676,
					"semantic": "MODELVIEW"
				},
				"projectionMatrix": {
					"type": 35676,
					"semantic": "PROJECTION"
				},
				"normalMatrix": {
					"type": 35675,
					"semantic": "MODELVIEWINVERSETRANSPOSE"
				},
				"color": {
					"type": 35666
				},
				"roughness": {
					"type": 5126
				},
				"metallic": {
					"type": 5126
				},
				"light0Pos": {
					"type": 35666
				},
				"light0Color": {
					"type": 35666
				},
				"light1Pos": {
					"type": 35666
				},
				"light1Color": {
					"type": 35666
				}				
			},
			"attributes": {
				"a_position": "position",
				"a_normal": "normal",
				"a_color": "color"				
			},
			"uniforms": {
				"u_modelViewMatrix": "modelViewMatrix",
				"u_projectionMatrix": "projectionMatrix",
				"u_normalMatrix": "normalMatrix",
				"u_color": "color",
				"u_roughness": "roughness",
				"u_metallic": "metallic",
				"u_light0Pos": "light0Pos",
				"u_light0Color": "light0Color",
				"u_light1Pos": "light1Pos",
				"u_light1Color": "light1Color"				
			},
			"states": {
				"enable": [
					2929,
					2884
				],
				"functions": {
					"cullFace": [1029]
				}
			}
		},
		"technique_mat20": {
			"program": "program_mat20",
			"extras": {"gvrss" : "https://vr.google.com/shaders/w/gvrss/paper.json"},
			"parameters": {
				"position": {
					"type": 35665,
					"semantic": "POSITION"
				},
				"normal": {
					"type": 35665,
					"semantic": "NORMAL"
				},
				"color": {
					"type": 35666,
					"semantic": "COLOR"
				},
				"modelViewMatrix": {
					"type": 35676,
					"semantic": "MODELVIEW"
				},
				"projectionMatrix": {
					"type": 35676,
					"semantic": "PROJECTION"
				},
				"normalMatrix": {
					"type": 35675,
					"semantic": "MODELVIEWINVERSETRANSPOSE"
				},
				"color": {
					"type": 35666
				},
				"roughness": {
					"type": 5126
				},
				"metallic": {
					"type": 5126
				},
				"light0Pos": {
					"type": 35666
				},
				"light0Color": {
					"type": 35666
				},
				"light1Pos": {
					"type": 35666
				},
				"light1Color": {
					"type": 35666
				}				
			},
			"attributes": {
				"a_position": "position",
				"a_normal": "normal",
				"a_color": "color"				
			},
			"uniforms": {
				"u_modelViewMatrix": "modelViewMatrix",
				"u_projectionMatrix": "projectionMatrix",
				"u_normalMatrix": "normalMatrix",
				"u_color": "color",
				"u_roughness": "roughness",
				"u_metallic": "metallic",
				"u_light0Pos": "light0Pos",
				"u_light0Color": "light0Color",
				"u_light1Pos": "light1Pos",
				"u_light1Color": "light1Color"				
			},
			"states": {
				"enable": [
					2929,
					2884
				],
				"functions": {
					"cullFace": [1029]
				}
			}
		},
		"technique_mat25": {
			"program": "program_mat25",
			"extras": {"gvrss" : "https://vr.google.com/shaders/w/gvrss/gem.json"},
			"parameters": {
				"position": {
					"type": 35665,
					"semantic": "POSITION"
				},
				"normal": {
					"type": 35665,
					"semantic": "NORMAL"
				},
				"color": {
					"type": 35666,
					"semantic": "COLOR"
				},
				"modelViewMatrix": {
					"type": 35676,
					"semantic": "MODELVIEW"
				},
				"projectionMatrix": {
					"type": 35676,
					"semantic": "PROJECTION"
				},
				"normalMatrix": {
					"type": 35675,
					"semantic": "MODELVIEWINVERSETRANSPOSE"
				},
				"color": {
					"type": 35666
				},
				"roughness": {
					"type": 5126
				},
				"metallic": {
					"type": 5126
				},
				"gem": {
					"type": 35678
				},
				"light0Pos": {
					"type": 35666
				},
				"light0Color": {
					"type": 35666
				},
				"light1Pos": {
					"type": 35666
				},
				"light1Color": {
					"type": 35666
				}				
			},
			"attributes": {
				"a_position": "position",
				"a_normal": "normal",
				"a_color": "color"				
			},
			"uniforms": {
				"u_modelViewMatrix": "modelViewMatrix",
				"u_projectionMatrix": "projectionMatrix",
				"u_normalMatrix": "normalMatrix",
				"u_color": "color",
				"u_roughness": "roughness",
				"u_metallic": "metallic",
				"u_gem": "gem",
				"u_light0Pos": "light0Pos",
				"u_light0Color": "light0Color",
				"u_light1Pos": "light1Pos",
				"u_light1Color": "light1Color"				
			},
			"states": {
				"enable": [
					2929,
					2884
				],
				"functions": {
					"cullFace": [1029]
				}
			}
		},
		"technique_mat24": {
			"program": "program_mat24",
			"extras": {"gvrss" : "https://vr.google.com/shaders/w/gvrss/glass.json"},
			"parameters": {
				"position": {
					"type": 35665,
					"semantic": "POSITION"
				},
				"normal": {
					"type": 35665,
					"semantic": "NORMAL"
				},
				"color": {
					"type": 35666,
					"semantic": "COLOR"
				},
				"modelViewMatrix": {
					"type": 35676,
					"semantic": "MODELVIEW"
				},
				"projectionMatrix": {
					"type": 35676,
					"semantic": "PROJECTION"
				},
				"normalMatrix": {
					"type": 35675,
					"semantic": "MODELVIEWINVERSETRANSPOSE"
				},
				"color": {
					"type": 35666
				},
				"roughness": {
					"type": 5126
				},
				"metallic": {
					"type": 5126
				},
				"light0Pos": {
					"type": 35666
				},
				"light0Color": {
					"type": 35666
				},
				"light1Pos": {
					"type": 35666
				},
				"light1Color": {
					"type": 35666
				}				
			},
			"attributes": {
				"a_position": "position",
				"a_normal": "normal",
				"a_color": "color"				
			},
			"uniforms": {
				"u_modelViewMatrix": "modelViewMatrix",
				"u_projectionMatrix": "projectionMatrix",
				"u_normalMatrix": "normalMatrix",
				"u_color": "color",
				"u_roughness": "roughness",
				"u_metallic": "metallic",
				"u_light0Pos": "light0Pos",
				"u_light0Color": "light0Color",
				"u_light1Pos": "light1Pos",
				"u_light1Color": "light1Color"				
			},
			"states": {
				"enable": [
					2929,
					3042
				],
				"functions": {
					"blendFuncSeparate": [775, 774, 773, 772],
					"depthMask": [true]
				}
			}
		}
	},
	"samplers": {
		"sampler_LINEAR_LINEAR_REPEAT": {
			"magFilter": 9729,
			"minFilter": 9987,
			"wrapS": 10497,
			"wrapT": 10497
		}
	},
	"textures": {
		"texture_mat25_gem": {
			"format": 6408,
			"internalFormat": 6408,
			"sampler": "sampler_LINEAR_LINEAR_REPEAT",
			"source": "image_mat25_gem",
			"target": 3553,
			"type": 5121
		}
	},
	"images": {
		"image_mat25_gem": {
			"uri": "https://vr.google.com/shaders/w/GemRefractions.png"
		}
	},
	"materials": {
		"material_mat17": {
			"technique": "technique_mat17",
			"values": {
				"color": [0.2705882, 0.3529412, 0.3921569, 1],
				"roughness": 0.72,
				"metallic": 0,
				"light0Pos": [-0.02, 4.11, -0.54, 0],
				"light0Color": [0.8, 0.8, 0.8, 0],
				"light1Pos": [0.02, -4.11, 0.54, 0],
				"light1Color": [0.64, 0.5647059, 0.5647059, 0]				
			},
			"name": "material_mat17"
		},
		"material_mat20": {
			"technique": "technique_mat20",
			"values": {
				"color": [0.4745098, 0.3333333, 0.282353, 1],
				"roughness": 0.72,
				"metallic": 0,
				"light0Pos": [-0.02, 4.11, -0.54, 0],
				"light0Color": [0.8, 0.8, 0.8, 0],
				"light1Pos": [0.02, -4.11, 0.54, 0],
				"light1Color": [0.64, 0.5647059, 0.5647059, 0]				
			},
			"name": "material_mat20"
		},
		"material_mat25": {
			"technique": "technique_mat25",
			"values": {
				"color": [1, 1, 1, 1],
				"roughness": 0.001,
				"metallic": 0,
				"gem": "texture_mat25_gem",
				"light0Pos": [-0.02, 4.11, -0.54, 0],
				"light0Color": [0.8, 0.8, 0.8, 0],
				"light1Pos": [0.02, -4.11, 0.54, 0],
				"light1Color": [0.64, 0.5647059, 0.5647059, 0]				
			},
			"name": "material_mat25"
		},
		"material_mat24": {
			"technique": "technique_mat24",
			"values": {
				"color": [0.8392157, 0.8392157, 0.8392157, 0.2509804],
				"roughness": 0,
				"metallic": 0,
				"light0Pos": [-0.02, 4.11, -0.54, 0],
				"light0Color": [0.8, 0.8, 0.8, 0],
				"light1Pos": [0.02, -4.11, 0.54, 0],
				"light1Color": [0.64, 0.5647059, 0.5647059, 0]				
			},
			"name": "material_mat24"
		}
	},
	"nodes": {
		"node_MeshObject955822784-PolyPaper17": {
			"name": "node_MeshObject955822784-PolyPaper17",
			"meshes": [
				"mesh_m0-PolyPaper17_-2150776"
			],
			"matrix": [1, 0, 0, 0, 0, 1, 0, 0, 0, 0, 1, 0, 0, 0, 0, 1]
		},
		"node_MeshObject-600337408-PolyPaper20": {
			"name": "node_MeshObject-600337408-PolyPaper20",
			"meshes": [
				"mesh_m1-PolyPaper20_-2150770"
			],
			"matrix": [1, 0, 0, 0, 0, 1, 0, 0, 0, 0, 1, 0, 0, 0, 0, 1]
		},
		"node_MeshObject-81617344-PolyGem25": {
			"name": "node_MeshObject-81617344-PolyGem25",
			"meshes": [
				"mesh_m2-PolyGem25_-2150772"
			],
			"matrix": [1, 0, 0, 0, 0, 1, 0, 0, 0, 0, 1, 0, 0, 0, 0, 1]
		},
		"node_MeshObject437102720-PolyGlass24": {
			"name": "node_MeshObject437102720-PolyGlass24",
			"meshes": [
				"mesh_m3-PolyGlass24_-2150774"
			],
			"matrix": [1, 0, 0, 0, 0, 1, 0, 0, 0, 0, 1, 0, 0, 0, 0, 1]
		}
	},
	"scene": "defaultScene",
	"scenes": {
		"defaultScene": {
			"nodes": [
				"node_MeshObject955822784-PolyPaper17",
				"node_MeshObject-600337408-PolyPaper20",
				"node_MeshObject-81617344-PolyGem25",
				"node_MeshObject437102720-PolyGlass24"
			],
			"extras": {

			}
		}
	}
}