{
	"asset": {
		"generator": "Blocks 4.0.1_OVR_RC0",
		"version": "1.1",
		"copyright": "Unknown"
	},
	"buffers": {
		"model": {
			"byteLength": 888446,
			"type": "arraybuffer",
			"uri": "model.bin"
		}
	},
	"accessors": {
		"accessor_position_m0-PolyPaper10_-203764": {
			"bufferView": "vec3BufferView",
			"byteOffset": 0,
			"byteStride": 12,
			"componentType": 5126,
			"count": 9235,
			"max": [ 3.356127, 1.291365, -1.234579 ],
			"min": [ 2.175499, 0.7596897, -2.590745 ],
			"type": "VEC3"
		 },
		"accessor_normal_m0-PolyPaper10_-203764": {
			"bufferView": "vec3BufferView",
			"byteOffset": 110820,
			"byteStride": 12,
			"componentType": 5126,
			"count": 9235,
			"max": [ 0.9989018, 0.9999873, 0.999177 ],
			"min": [ -0.9987239, -0.999889, -0.999025 ],
			"type": "VEC3"
		 },
		"accessor_color_m0-PolyPaper10_-203764": {
			"bufferView": "vec4BufferView",
			"byteOffset": 0,
			"byteStride": 16,
			"componentType": 5126,
			"count": 9235,
			"max": [ 1, 1, 1, 1 ],
			"min": [ 0.1019608, 0.1019608, 0, 1 ],
			"type": "VEC4"
		 },
		"accessor_indices_0_m0-PolyPaper10_-203764": {
			"bufferView": "ushortBufferView",
			"byteOffset": 0,
			"byteStride": 0,
			"componentType": 5123,
			"count": 13257,
			"max": [ 9234 ],
			"min": [ 0 ],
			"type": "SCALAR"
		 },
		"accessor_position_m1-PolyGlass24_-203770": {
			"bufferView": "vec3BufferView",
			"byteOffset": 221640,
			"byteStride": 12,
			"componentType": 5126,
			"count": 236,
			"max": [ 3.190035, 1.244655, -1.476999 ],
			"min": [ 2.387041, 0.7272622, -2.283863 ],
			"type": "VEC3"
		 },
		"accessor_normal_m1-PolyGlass24_-203770": {
			"bufferView": "vec3BufferView",
			"byteOffset": 224472,
			"byteStride": 12,
			"componentType": 5126,
			"count": 236,
			"max": [ 0.9945523, 0.9982187, 0.9915266 ],
			"min": [ -0.9945523, -0.9927279, -0.9915267 ],
			"type": "VEC3"
		 },
		"accessor_color_m1-PolyGlass24_-203770": {
			"bufferView": "vec4BufferView",
			"byteOffset": 147760,
			"byteStride": 16,
			"componentType": 5126,
			"count": 236,
			"max": [ 1, 1, 1, 1 ],
			"min": [ 1, 1, 1, 1 ],
			"type": "VEC4"
		 },
		"accessor_indices_0_m1-PolyGlass24_-203770": {
			"bufferView": "ushortBufferView",
			"byteOffset": 26514,
			"byteStride": 0,
			"componentType": 5123,
			"count": 282,
			"max": [ 235 ],
			"min": [ 0 ],
			"type": "SCALAR"
		 },
		"accessor_position_m2-PolyPaper20_-203776": {
			"bufferView": "vec3BufferView",
			"byteOffset": 227304,
			"byteStride": 12,
			"componentType": 5126,
			"count": 11252,
			"max": [ 3.427299, 1.088387, -1.150296 ],
			"min": [ 2.094935, 0.6598355, -2.680484 ],
			"type": "VEC3"
		 },
		"accessor_normal_m2-PolyPaper20_-203776": {
			"bufferView": "vec3BufferView",
			"byteOffset": 362328,
			"byteStride": 12,
			"componentType": 5126,
			"count": 11252,
			"max": [ 0.9994782, 0.9999165, 0.9994079 ],
			"min": [ -0.999478, -0.9999165, -0.9994079 ],
			"type": "VEC3"
		 },
		"accessor_color_m2-PolyPaper20_-203776": {
			"bufferView": "vec4BufferView",
			"byteOffset": 151536,
			"byteStride": 16,
			"componentType": 5126,
			"count": 11252,
			"max": [ 1, 1, 1, 1 ],
			"min": [ 0.01176471, 0.3333333, 0, 1 ],
			"type": "VEC4"
		 },
		"accessor_indices_0_m2-PolyPaper20_-203776": {
			"bufferView": "ushortBufferView",
			"byteOffset": 27078,
			"byteStride": 0,
			"componentType": 5123,
			"count": 16224,
			"max": [ 11251 ],
			"min": [ 0 ],
			"type": "SCALAR"
		 }
	},
	"bufferViews": {
		"ushortBufferView": {
			"buffer": "model",
			"byteLength": 59526,
			"byteOffset": 0,
			"target": 34963
		},
		"vec3BufferView": {
			"buffer": "model",
			"byteLength": 497352,
			"byteOffset": 59526,
			"target": 34962
		},
		"vec4BufferView": {
			"buffer": "model",
			"byteLength": 331568,
			"byteOffset": 556878,
			"target": 34962
		}
	},
	"meshes": {
		"mesh_m0-PolyPaper10_-203764": {
			"name": "mesh_m0-PolyPaper10_-203764",
			"primitives": [
				{
					"attributes": {
						"POSITION": "accessor_position_m0-PolyPaper10_-203764",
						"NORMAL": "accessor_normal_m0-PolyPaper10_-203764",
						"COLOR": "accessor_color_m0-PolyPaper10_-203764"
					},
					"indices": "accessor_indices_0_m0-PolyPaper10_-203764",
					"material": "material_mat10",
					"mode": 4
				}
			]
		},
		"mesh_m1-PolyGlass24_-203770": {
			"name": "mesh_m1-PolyGlass24_-203770",
			"primitives": [
				{
					"attributes": {
						"POSITION": "accessor_position_m1-PolyGlass24_-203770",
						"NORMAL": "accessor_normal_m1-PolyGlass24_-203770",
						"COLOR": "accessor_color_m1-PolyGlass24_-203770"
					},
					"indices": "accessor_indices_0_m1-PolyGlass24_-203770",
					"material": "material_mat24",
					"mode": 4
				}
			]
		},
		"mesh_m2-PolyPaper20_-203776": {
			"name": "mesh_m2-PolyPaper20_-203776",
			"primitives": [
				{
					"attributes": {
						"POSITION": "accessor_position_m2-PolyPaper20_-203776",
						"NORMAL": "accessor_normal_m2-PolyPaper20_-203776",
						"COLOR": "accessor_color_m2-PolyPaper20_-203776"
					},
					"indices": "accessor_indices_0_m2-PolyPaper20_-203776",
					"material": "material_mat20",
					"mode": 4
				}
			]
		}
	},
	"shaders": {
		"vertex_mat10": {
			"type": 35633,
			"uri": "https://vr.google.com/shaders/w/vs.glsl"
		},
		"fragment_mat10": {
			"type": 35632,
			"uri": "https://vr.google.com/shaders/w/fs.glsl"
		},
		"vertex_mat24": {
			"type": 35633,
			"uri": "https://vr.google.com/shaders/w/glassVS.glsl"
		},
		"fragment_mat24": {
			"type": 35632,
			"uri": "https://vr.google.com/shaders/w/glassFS.glsl"
		},
		"vertex_mat20": {
			"type": 35633,
			"uri": "https://vr.google.com/shaders/w/vs.glsl"
		},
		"fragment_mat20": {
			"type": 35632,
			"uri": "https://vr.google.com/shaders/w/fs.glsl"
		}
	},
	"programs": {
		"program_mat10": {
			"attributes": [
				"a_position",
				"a_normal",
				"a_color"				
			],
			"vertexShader": "vertex_mat10",
			"fragmentShader": "fragment_mat10"
		},
		"program_mat24": {
			"attributes": [
				"a_position",
				"a_normal",
				"a_color"				
			],
			"vertexShader": "vertex_mat24",
			"fragmentShader": "fragment_mat24"
		},
		"program_mat20": {
			"attributes": [
				"a_position",
				"a_normal",
				"a_color"				
			],
			"vertexShader": "vertex_mat20",
			"fragmentShader": "fragment_mat20"
		}
	},
	"techniques": {
		"technique_mat10": {
			"program": "program_mat10",
			"extras": {"gvrss" : "https://vr.google.com/shaders/w/gvrss/paper.json"},
			"parameters": {
				"position": {
					"type": 35665,
					"semantic": "POSITION"
				},
				"normal": {
					"type": 35665,
					"semantic": "NORMAL"
				},
				"color": {
					"type": 35666,
					"semantic": "COLOR"
				},
				"modelViewMatrix": {
					"type": 35676,
					"semantic": "MODELVIEW"
				},
				"projectionMatrix": {
					"type": 35676,
					"semantic": "PROJECTION"
				},
				"normalMatrix": {
					"type": 35675,
					"semantic": "MODELVIEWINVERSETRANSPOSE"
				},
				"color": {
					"type": 35666
				},
				"roughness": {
					"type": 5126
				},
				"metallic": {
					"type": 5126
				},
				"light0Pos": {
					"type": 35666
				},
				"light0Color": {
					"type": 35666
				},
				"light1Pos": {
					"type": 35666
				},
				"light1Color": {
					"type": 35666
				}				
			},
			"attributes": {
				"a_position": "position",
				"a_normal": "normal",
				"a_color": "color"				
			},
			"uniforms": {
				"u_modelViewMatrix": "modelViewMatrix",
				"u_projectionMatrix": "projectionMatrix",
				"u_normalMatrix": "normalMatrix",
				"u_color": "color",
				"u_roughness": "roughness",
				"u_metallic": "metallic",
				"u_light0Pos": "light0Pos",
				"u_light0Color": "light0Color",
				"u_light1Pos": "light1Pos",
				"u_light1Color": "light1Color"				
			},
			"states": {
				"enable": [
					2929,
					2884
				],
				"functions": {
					"cullFace": [1029]
				}
			}
		},
		"technique_mat24": {
			"program": "program_mat24",
			"extras": {"gvrss" : "https://vr.google.com/shaders/w/gvrss/glass.json"},
			"parameters": {
				"position": {
					"type": 35665,
					"semantic": "POSITION"
				},
				"normal": {
					"type": 35665,
					"semantic": "NORMAL"
				},
				"color": {
					"type": 35666,
					"semantic": "COLOR"
				},
				"modelViewMatrix": {
					"type": 35676,
					"semantic": "MODELVIEW"
				},
				"projectionMatrix": {
					"type": 35676,
					"semantic": "PROJECTION"
				},
				"normalMatrix": {
					"type": 35675,
					"semantic": "MODELVIEWINVERSETRANSPOSE"
				},
				"color": {
					"type": 35666
				},
				"roughness": {
					"type": 5126
				},
				"metallic": {
					"type": 5126
				},
				"light0Pos": {
					"type": 35666
				},
				"light0Color": {
					"type": 35666
				},
				"light1Pos": {
					"type": 35666
				},
				"light1Color": {
					"type": 35666
				}				
			},
			"attributes": {
				"a_position": "position",
				"a_normal": "normal",
				"a_color": "color"				
			},
			"uniforms": {
				"u_modelViewMatrix": "modelViewMatrix",
				"u_projectionMatrix": "projectionMatrix",
				"u_normalMatrix": "normalMatrix",
				"u_color": "color",
				"u_roughness": "roughness",
				"u_metallic": "metallic",
				"u_light0Pos": "light0Pos",
				"u_light0Color": "light0Color",
				"u_light1Pos": "light1Pos",
				"u_light1Color": "light1Color"				
			},
			"states": {
				"enable": [
					2929,
					3042
				],
				"functions": {
					"blendFuncSeparate": [775, 774, 773, 772],
					"depthMask": [true]
				}
			}
		},
		"technique_mat20": {
			"program": "program_mat20",
			"extras": {"gvrss" : "https://vr.google.com/shaders/w/gvrss/paper.json"},
			"parameters": {
				"position": {
					"type": 35665,
					"semantic": "POSITION"
				},
				"normal": {
					"type": 35665,
					"semantic": "NORMAL"
				},
				"color": {
					"type": 35666,
					"semantic": "COLOR"
				},
				"modelViewMatrix": {
					"type": 35676,
					"semantic": "MODELVIEW"
				},
				"projectionMatrix": {
					"type": 35676,
					"semantic": "PROJECTION"
				},
				"normalMatrix": {
					"type": 35675,
					"semantic": "MODELVIEWINVERSETRANSPOSE"
				},
				"color": {
					"type": 35666
				},
				"roughness": {
					"type": 5126
				},
				"metallic": {
					"type": 5126
				},
				"light0Pos": {
					"type": 35666
				},
				"light0Color": {
					"type": 35666
				},
				"light1Pos": {
					"type": 35666
				},
				"light1Color": {
					"type": 35666
				}				
			},
			"attributes": {
				"a_position": "position",
				"a_normal": "normal",
				"a_color": "color"				
			},
			"uniforms": {
				"u_modelViewMatrix": "modelViewMatrix",
				"u_projectionMatrix": "projectionMatrix",
				"u_normalMatrix": "normalMatrix",
				"u_color": "color",
				"u_roughness": "roughness",
				"u_metallic": "metallic",
				"u_light0Pos": "light0Pos",
				"u_light0Color": "light0Color",
				"u_light1Pos": "light1Pos",
				"u_light1Color": "light1Color"				
			},
			"states": {
				"enable": [
					2929,
					2884
				],
				"functions": {
					"cullFace": [1029]
				}
			}
		}
	},
	"materials": {
		"material_mat10": {
			"technique": "technique_mat10",
			"values": {
				"color": [0.2980392, 0.6862745, 0.3137255, 1],
				"roughness": 1,
				"metallic": 0,
				"light0Pos": [-0.02, 4.11, -0.54, 0],
				"light0Color": [1.28, 1.232075, 1.101177, 0],
				"light1Pos": [0.02, -4.11, 0.54, 0],
				"light1Color": [0.2941177, 0.2953672, 0.32, 0]				
			},
			"name": "material_mat10"
		},
		"material_mat24": {
			"technique": "technique_mat24",
			"values": {
				"color": [0.8392157, 0.8392157, 0.8392157, 0.2509804],
				"roughness": 0,
				"metallic": 0,
				"light0Pos": [-0.02, 4.11, -0.54, 0],
				"light0Color": [1.28, 1.232075, 1.101177, 0],
				"light1Pos": [0.02, -4.11, 0.54, 0],
				"light1Color": [0.2941177, 0.2953672, 0.32, 0]				
			},
			"name": "material_mat24"
		},
		"material_mat20": {
			"technique": "technique_mat20",
			"values": {
				"color": [0.4745098, 0.3333333, 0.282353, 1],
				"roughness": 1,
				"metallic": 0,
				"light0Pos": [-0.02, 4.11, -0.54, 0],
				"light0Color": [1.28, 1.232075, 1.101177, 0],
				"light1Pos": [0.02, -4.11, 0.54, 0],
				"light1Color": [0.2941177, 0.2953672, 0.32, 0]				
			},
			"name": "material_mat20"
		}
	},
	"nodes": {
		"node_MeshObject1023886336-PolyPaper10": {
			"name": "node_MeshObject1023886336-PolyPaper10",
			"meshes": [
				"mesh_m0-PolyPaper10_-203764"
			],
			"matrix": [1, 0, 0, 0, 0, 1, 0, 0, 0, 0, 1, 0, 0, 0, 0, 1]
		},
		"node_MeshObject1595965440-PolyGlass24": {
			"name": "node_MeshObject1595965440-PolyGlass24",
			"meshes": [
				"mesh_m1-PolyGlass24_-203770"
			],
			"matrix": [1, 0, 0, 0, 0, 1, 0, 0, 0, 0, 1, 0, 0, 0, 0, 1]
		},
		"node_MeshObject750968832-PolyPaper20": {
			"name": "node_MeshObject750968832-PolyPaper20",
			"meshes": [
				"mesh_m2-PolyPaper20_-203776"
			],
			"matrix": [1, 0, 0, 0, 0, 1, 0, 0, 0, 0, 1, 0, 0, 0, 0, 1]
		}
	},
	"scene": "defaultScene",
	"scenes": {
		"defaultScene": {
			"nodes": [
				"node_MeshObject1023886336-PolyPaper10",
				"node_MeshObject1595965440-PolyGlass24",
				"node_MeshObject750968832-PolyPaper20"
			],
			"extras": {

			}
		}
	}
}